<svg width="97" height="99" xmlns="http://www.w3.org/2000/svg" xmlns:xlink="http://www.w3.org/1999/xlink" xml:space="preserve" overflow="hidden"><g transform="translate(-1096 -193)"><g><g><g><g><path d="M32.3333 48.1632 64.6667 48.1632 64.6667 50.8576 32.3333 50.8576 32.3333 48.1632ZM26.2708 54.8993 70.7292 54.8993 70.7292 57.5938 26.2708 57.5938 26.2708 54.8993ZM71.066 45.1319 71.066 35.7014C71.066 35.7014 64.6667 31.3229 48.5 31.3229 32.3333 31.3229 25.934 35.3646 25.934 35.3646L25.934 44.7951C25.934 44.7951 33.4448 40.7535 48.5 40.7535 63.5552 40.7535 71.066 45.1319 71.066 45.1319ZM28.6285 37.0486C29.8073 36.5771 31.0198 36.1729 32.2323 35.8361 35.3309 35.0278 40.6861 34.0174 48.5 34.0174 56.3139 34.0174 61.6017 35.0951 64.7003 35.9708 65.9465 36.3413 67.159 36.7792 68.3715 37.3181L68.3715 41.0566C64.4983 39.7094 57.8632 38.059 48.5 38.059 39.1368 38.059 32.4681 39.5747 28.6285 40.8208L28.6285 37.0486ZM82.1806 75.1076 82.1806 19.8715 14.8194 19.8715 14.8194 75.1076 37.8906 75.1076C38.3285 76.5222 39.0358 77.8358 40.0125 78.9472L36.2066 88.1083 41.966 87.1653 45.5698 91.9142 48.2979 85.3465 51.026 91.9142 54.5962 87.1653 60.3556 88.1083 56.516 78.8125C57.4253 77.7347 58.099 76.4885 58.5031 75.1076L82.1806 75.1076ZM17.5139 72.4132 17.5139 22.566 79.4861 22.566 79.4861 72.4132 58.9747 72.4132C58.9747 72.2785 58.9747 72.1101 58.9747 71.9417 58.9747 71.4365 58.941 70.8976 58.8736 70.3924L77.4653 70.3924 77.4653 24.5868 19.5347 24.5868 19.5347 70.3924 37.5538 70.3924C37.4865 70.8976 37.4528 71.4365 37.4528 71.9417 37.4528 72.1101 37.4528 72.2448 37.4528 72.4132L17.5139 72.4132ZM48.1969 80.025C43.7174 80.025 40.1135 76.4212 40.1135 71.9417 40.1135 67.4622 43.7174 63.8583 48.1969 63.8583 52.6764 63.8583 56.2802 67.4622 56.2802 71.9417 56.2802 76.4212 52.6764 80.025 48.1969 80.025ZM48.1969 61.1639C43.8858 61.1639 40.0125 63.7236 38.2948 67.6979L22.2292 67.6979 22.2292 27.2812 74.7708 27.2812 74.7708 67.6979 58.099 67.6979C56.4149 63.7573 52.508 61.1639 48.1969 61.1639ZM44.8962 86.559 43.1785 84.2687 40.5851 84.7066 42.1681 80.867C43.4816 81.7764 44.9635 82.349 46.5465 82.5847L44.8962 86.559ZM53.451 84.2687 51.7333 86.559 50.083 82.551C51.666 82.2816 53.1479 81.6417 54.4278 80.7323L56.0781 84.6729 53.451 84.2687ZM48.1969 65.8792C44.8625 65.8792 42.1344 68.6073 42.1344 71.9417 42.1344 75.276 44.8625 78.0042 48.1969 78.0042 51.5312 78.0042 54.2594 75.276 54.2594 71.9417 54.2594 68.6073 51.5649 65.8792 48.1969 65.8792ZM48.1969 75.3097C46.3444 75.3097 44.8288 73.7941 44.8288 71.9417 44.8288 70.0892 46.3444 68.5736 48.1969 68.5736 50.0493 68.5736 51.5649 70.0892 51.5649 71.9417 51.5649 73.7941 50.0493 75.3097 48.1969 75.3097Z" fill="#312D2A" fill-rule="nonzero" fill-opacity="1" transform="matrix(1.0017 0 0 1 1095.92 194)"/></g></g></g></g></g></svg>