<svg width="99" height="99" xmlns="http://www.w3.org/2000/svg" xmlns:xlink="http://www.w3.org/1999/xlink" xml:space="preserve" overflow="hidden"><g transform="translate(-109 -193)"><g><g><g><g><path d="M61.2986 29.3021 54.8993 29.3021C52.5019 29.2831 50.1972 30.2257 48.5 31.9191 46.8028 30.2257 44.4981 29.2831 42.1007 29.3021L35.7014 29.3021 35.7014 31.9965 30.9861 31.9965 30.9861 53.2153 66.0139 53.2153 66.0139 31.9965 61.2986 31.9965ZM47.1528 50.5208 33.6806 50.5208 33.6806 34.691 35.7014 34.691 35.7014 48.5 42.1007 48.5C44.4415 48.5 46.3613 49.8203 47.1528 50.4602ZM47.1528 47.2134C45.6176 46.3178 43.8777 45.8328 42.1007 45.8056L38.3958 45.8056 38.3958 31.9965 42.1007 31.9965C44.0724 31.9828 45.9386 32.8848 47.1528 34.4384ZM49.8472 34.4384C51.0601 32.8832 52.9273 31.9807 54.8993 31.9965L58.6042 31.9965 58.6042 45.8056 54.8993 45.8056C53.1223 45.8328 51.3824 46.3178 49.8472 47.2134ZM63.3194 34.691 63.3194 50.5208 49.8472 50.5208 49.8472 50.4602C50.6421 49.8203 52.5652 48.5 54.8993 48.5L61.2986 48.5 61.2986 34.691Z" fill="#312D2A" fill-rule="nonzero" fill-opacity="1" transform="matrix(1.01203 0 0 1 109.917 194)"/><path d="M26.2708 61.9722 70.7292 61.9722 70.7292 64.6667 26.2708 64.6667Z" fill="#312D2A" fill-rule="nonzero" fill-opacity="1" transform="matrix(1.01203 0 0 1 109.917 194)"/><path d="M37.7222 66.6875 59.2778 66.6875 59.2778 69.3819 37.7222 69.3819Z" fill="#312D2A" fill-rule="nonzero" fill-opacity="1" transform="matrix(1.01203 0 0 1 109.917 194)"/><path d="M84.875 71.7396 77.8021 58.0383 77.8021 25.5972C77.8021 23.9231 76.4451 22.566 74.7708 22.566L22.2292 22.566C20.555 22.566 19.1979 23.9231 19.1979 25.5972L19.1979 58.5334 12.125 71.7396 12.125 73.0868 14.8194 74.434 82.1806 74.434 84.875 73.0868 84.875 71.7396ZM21.8924 25.5972C21.8924 25.4112 22.0431 25.2604 22.2292 25.2604L74.7708 25.2604C74.9567 25.2604 75.1076 25.4112 75.1076 25.5972L75.1076 57.2569 21.8924 57.2569ZM15.1832 71.7396 21.5118 59.9514 75.7812 59.9514 81.8438 71.7396Z" fill="#312D2A" fill-rule="nonzero" fill-opacity="1" transform="matrix(1.01203 0 0 1 109.917 194)"/></g></g></g></g></g></svg>