<svg width="100" height="98" xmlns="http://www.w3.org/2000/svg" xmlns:xlink="http://www.w3.org/1999/xlink" xml:space="preserve" overflow="hidden"><g transform="translate(-828 -280)"><g><g><g><g><path d="M49.1361 60.6715C42.9771 60.6715 42.6708 63.4958 42.6708 64.0743L42.6708 72.5813C42.6708 74.691 46.4479 75.6438 49.1361 75.6438 51.8243 75.6438 55.6014 74.691 55.6014 72.5813L55.6014 64.0743C55.6014 62.8153 54.7847 60.6715 49.1361 60.6715ZM49.1361 63.3938C51.1438 63.3938 52.2667 63.734 52.709 63.9722 52.1986 64.2785 50.9396 64.7549 49.1361 64.7549 47.4347 64.7549 46.1757 64.3465 45.6313 64.0063 46.2097 63.734 47.5708 63.3938 49.1361 63.3938ZM52.8792 68.1917C52.3347 68.4639 50.9396 68.8722 49.1361 68.8722 47.3326 68.8722 45.9375 68.4639 45.3931 68.1917L45.3931 66.8986C46.516 67.3069 47.8431 67.5111 49.1361 67.5111 50.4292 67.5111 51.7563 67.3069 52.8792 66.8986L52.8792 68.1917ZM49.1361 72.9215C47.2986 72.9215 45.9375 72.4451 45.3931 72.1389L45.3931 71.084C46.6521 71.4583 48.1153 71.5604 49.1361 71.5604 50.1569 71.5604 51.6201 71.4243 52.8792 71.084L52.8792 72.1389C52.3347 72.4451 50.9736 72.9215 49.1361 72.9215Z" fill="#312D2A" fill-rule="nonzero" fill-opacity="1" transform="matrix(1 0 0 1.0017 829 279.917)"/><path d="M60.6375 44.6785 56.6222 44.7125 56.6222 39.4382C58.7319 37.3625 60.059 34.5382 60.059 31.4417L60.025 16.5035 60.025 15.1424 45.3931 15.1424C40.4931 15.1424 37.5667 18.3069 37.5667 23.6493L37.5326 31.6118C37.5326 34.7424 38.8597 37.5667 40.9694 39.5743L40.9694 44.7465 36.9542 44.7125C29.7743 44.7125 23.9556 50.5313 23.9556 57.7111L23.9556 65.8438 26.6778 65.8438 26.6778 57.7111C26.6778 52.0625 31.2715 47.4347 36.9542 47.4347L42.0924 47.4688 48.8299 54.5465 55.5674 47.4688 60.6715 47.4347C66.3201 47.4347 70.9479 52.0285 70.9479 57.7111L70.9479 65.8438 73.6701 65.8438 73.6701 57.7111C73.6361 50.4972 67.8174 44.6785 60.6375 44.6785ZM45.3931 17.7965 57.2347 17.7965C56.7583 22.2201 53.866 22.2201 52.8792 22.2201L40.3569 22.2201C40.7653 19.2938 42.4326 17.7965 45.3931 17.7965ZM40.2549 31.5438 40.2889 24.9424 52.8792 24.9424C54.6826 24.9424 56.1799 24.4319 57.3368 23.5132L57.3708 31.3736C57.3708 36.0014 53.4576 39.9146 48.8299 39.9146 44.1 39.9146 40.2549 36.1715 40.2549 31.5438ZM48.7958 50.5313 43.6917 45.1549 43.6917 41.4118C45.2229 42.1944 46.9583 42.6368 48.7958 42.6368 50.5993 42.6368 52.3347 42.1604 53.9 41.3778L53.9 45.1549 48.7958 50.5313Z" fill="#312D2A" fill-rule="nonzero" fill-opacity="1" transform="matrix(1 0 0 1.0017 829 279.917)"/><path d="M64.1083 77.0049 64.1083 59.6507C64.1083 57.9493 62.7472 56.5882 61.0458 56.5882L36.8861 56.5882C35.1847 56.5882 33.8236 57.9493 33.8236 59.6507L33.8236 77.0049 31.7819 77.0049 29.0597 77.0049 29.0597 78.366 31.7819 79.7271 33.8236 79.7271 64.1083 79.7271 66.15 79.7271 68.8722 78.366 68.8722 77.0049 66.15 77.0049 64.1083 77.0049ZM36.5458 59.6507C36.5458 59.4465 36.6819 59.3104 36.8861 59.3104L61.0458 59.3104C61.25 59.3104 61.3861 59.4465 61.3861 59.6507L61.3861 77.0049 36.5458 77.0049 36.5458 59.6507Z" fill="#312D2A" fill-rule="nonzero" fill-opacity="1" transform="matrix(1 0 0 1.0017 829 279.917)"/></g></g></g></g></g></svg>