<svg width="98" height="98" xmlns="http://www.w3.org/2000/svg" xmlns:xlink="http://www.w3.org/1999/xlink" xml:space="preserve" overflow="hidden"><g transform="translate(-412 -132)"><g><g><g><g><path d="M478.172 211.678 476.151 211.678 476.151 194.501C476.151 192.817 474.804 191.469 473.12 191.469L449.207 191.469C447.523 191.469 446.175 192.817 446.175 194.501L446.175 211.678 444.155 211.678 441.46 211.678 441.46 213.025 444.155 214.372 478.172 214.372 480.866 213.025 480.866 211.678 478.172 211.678ZM448.87 194.501C448.87 194.299 449.005 194.164 449.207 194.164L473.12 194.164C473.322 194.164 473.457 194.299 473.457 194.501L473.457 211.678 448.87 211.678 448.87 194.501Z" fill="#312D2A" fill-rule="nonzero" fill-opacity="1"/><path d="M459.311 202.887 457.391 204.773 459.311 206.693 461.197 204.773 462.51 206.087 464.767 199.317 457.997 201.574Z" fill="#312D2A" fill-rule="nonzero" fill-opacity="1"/><path d="M472.951 181.062C474.198 180.052 475.242 178.738 476.185 177.122L476.454 176.65 471.402 156.341 471.335 156.341C470.223 152.872 467.125 150.379 463.487 150.379L458.469 150.379C454.764 150.379 451.699 152.838 450.621 156.341L450.587 156.341 445.535 176.65 445.805 177.122C446.748 178.738 447.792 180.052 449.038 181.062 443.009 181.466 438.395 186.283 438.395 192.379L438.395 200.496 441.09 200.496 441.09 192.379C441.09 187.529 444.929 183.723 449.847 183.723L454.595 183.723C454.966 186.653 457.761 189.112 460.927 189.112 464.093 189.112 466.923 186.653 467.293 183.723L472.042 183.723C476.959 183.723 480.799 187.529 480.799 192.379L480.799 200.496 483.493 200.496 483.493 192.379C483.561 186.316 478.98 181.466 472.951 181.062ZM452.911 165.535 452.911 162.268C454.932 162.639 457.93 162.572 460.995 160.214 463.251 161.932 465.441 162.437 467.259 162.437 467.933 162.437 468.539 162.369 469.078 162.268L469.078 165.535C469.078 170.352 465.441 174.292 460.995 174.292 456.549 174.292 452.911 170.352 452.911 165.535ZM467.394 180.894 467.394 174.73C469.449 173.114 470.964 170.722 471.537 167.96L473.591 176.212C472.042 178.738 470.19 180.119 467.394 180.894ZM458.469 153.074 463.487 153.074C466.619 153.074 469.078 155.734 469.078 159.136L469.078 159.507C467.529 159.877 464.733 160.045 461.904 157.452L460.995 156.61 460.085 157.452C457.256 160.045 454.461 159.877 452.911 159.507L452.911 159.102C452.911 155.734 455.37 153.074 458.469 153.074ZM450.486 168.028C451.059 170.756 452.541 173.114 454.595 174.73L454.595 180.86C451.8 180.085 449.981 178.705 448.432 176.212L450.486 168.028ZM460.995 186.417C459.109 186.417 457.29 184.767 457.29 183.049L457.29 176.28C458.435 176.717 459.681 176.987 460.995 176.987 462.308 176.987 463.555 176.751 464.7 176.28L464.7 183.049C464.7 184.801 462.881 186.417 460.995 186.417Z" fill="#312D2A" fill-rule="nonzero" fill-opacity="1"/></g></g></g></g></g></svg>