<svg width="98" height="99" xmlns="http://www.w3.org/2000/svg" xmlns:xlink="http://www.w3.org/1999/xlink" xml:space="preserve" overflow="hidden"><g transform="translate(-592 -529)"><g><g><g><g><path d="M58.7726 62.6458 55.2361 62.6458 55.2361 59.2778C56.8865 57.6274 57.9306 55.3372 57.9306 52.8785L57.9306 41.0903 57.9306 39.7431 46.1424 39.7431C42.1681 39.7431 39.7767 42.3701 39.7431 46.7486L39.7431 46.816 39.7431 48.1632 39.7431 52.9795C39.7431 55.4382 40.7535 57.6948 42.4038 59.3115L42.4038 62.6121 38.5642 62.6121C33.6469 62.6458 29.6389 66.7212 29.6389 71.7396L29.6389 77.8021 32.3333 77.8021 32.3333 71.7396C32.3333 68.2705 35.1962 65.3403 38.5642 65.3403L43.0101 65.3403 48.8031 71.4701 54.5625 65.3403 58.7726 65.3403C62.1406 65.3403 65.0035 68.2705 65.0035 71.7396L65.0035 77.8021 67.6979 77.8021 67.6979 71.7396C67.6979 66.7212 63.6899 62.6458 58.7726 62.6458ZM46.1424 42.4375 55.1351 42.4375C54.6972 45.4688 52.7438 45.4688 52.0701 45.4688L42.5385 45.4688C42.909 43.4816 44.0878 42.4375 46.1424 42.4375ZM52.0701 48.1632C53.2826 48.1632 54.3604 47.8601 55.2361 47.2875L55.2361 52.8785C55.2361 56.3476 52.3059 59.2778 48.8368 59.2778 45.3003 59.2778 42.4375 56.4486 42.4375 53.0132L42.4375 48.1632 52.0701 48.1632ZM48.8031 67.5632 45.1319 63.6562 45.1319 61.1976C46.2771 61.7028 47.5233 62.0059 48.8705 62.0059 50.184 62.0059 51.4302 61.7028 52.5417 61.1976L52.5417 63.6226 48.8031 67.5632Z" fill="#312D2A" fill-rule="nonzero" fill-opacity="1" transform="matrix(1.01031 0 0 1 592 530)"/><path d="M61.6354 49.8472 78.4757 49.8472 78.4757 33.0069 61.6354 33.0069 61.6354 49.8472ZM64.3299 35.7014 75.7812 35.7014 75.7812 47.1528 73.7604 47.1528 73.7604 39.0694 71.066 39.0694 71.066 47.1528 69.0451 47.1528 69.0451 42.1344 66.3507 42.1344 66.3507 47.1528 64.3299 47.1528 64.3299 35.7014Z" fill="#312D2A" fill-rule="nonzero" fill-opacity="1" transform="matrix(1.01031 0 0 1 592 530)"/><path d="M32.7038 49.8472 36.0382 49.8472 36.0382 33.0069 16.5035 33.0069 16.5035 46.4792 30.0094 46.4792 32.7038 49.8472ZM19.1979 35.7014 33.3438 35.7014 33.3438 46.3444 31.2892 43.7847 19.1979 43.7847 19.1979 35.7014Z" fill="#312D2A" fill-rule="nonzero" fill-opacity="1" transform="matrix(1.01031 0 0 1 592 530)"/><path d="M21.2188 37.7222 31.3229 37.7222 31.3229 40.4167 21.2188 40.4167Z" fill="#312D2A" fill-rule="nonzero" fill-opacity="1" transform="matrix(1.01031 0 0 1 592 530)"/><path d="M48.5 13.1354C43.3132 13.1354 39.0694 17.3792 39.0694 22.566 39.0694 27.7528 43.3132 31.9965 48.5 31.9965 53.6868 31.9965 57.9306 27.7528 57.9306 22.566 57.9306 17.3792 53.6868 13.1354 48.5 13.1354ZM48.5 29.3021C44.7951 29.3021 41.7639 26.2708 41.7639 22.566 41.7639 18.8611 44.7951 15.8299 48.5 15.8299 52.2049 15.8299 55.2361 18.8611 55.2361 22.566 55.2361 26.2708 52.2049 29.3021 48.5 29.3021Z" fill="#312D2A" fill-rule="nonzero" fill-opacity="1" transform="matrix(1.01031 0 0 1 592 530)"/><path d="M47.2538 23.1049 45.8056 21.6566 43.8858 23.5764 47.2538 26.9108 53.1142 21.084 51.1944 19.1642Z" fill="#312D2A" fill-rule="nonzero" fill-opacity="1" transform="matrix(1.01031 0 0 1 592 530)"/><path d="M28.5611 30.9861 31.9965 30.9861C33.6132 29.1 35.533 27.517 37.6885 26.2708 37.3854 25.3951 37.1833 24.4521 37.116 23.509 33.7479 25.2941 30.8177 27.8538 28.5611 30.9861Z" fill="#312D2A" fill-rule="nonzero" fill-opacity="1" transform="matrix(1.01031 0 0 1 592 530)"/><path d="M59.9514 23.1385C59.9177 24.1153 59.7493 25.0247 59.4799 25.934 61.8375 27.2139 63.9594 28.9316 65.7444 31.0198L69.1462 31.0198C66.7212 27.6181 63.5552 24.9236 59.9514 23.1385Z" fill="#312D2A" fill-rule="nonzero" fill-opacity="1" transform="matrix(1.01031 0 0 1 592 530)"/></g></g></g></g></g></svg>