<svg width="98" height="99" xmlns="http://www.w3.org/2000/svg" xmlns:xlink="http://www.w3.org/1999/xlink" xml:space="preserve" overflow="hidden"><g transform="translate(-356 -289)"><g><g><g><g><path d="M60.8632 60.7282 46.8282 60.7282 45.4787 58.8052C45.0064 58.1304 44.2304 57.6918 43.4882 57.6918L36.8755 57.6918C35.6947 57.6918 34.75 58.704 34.75 59.986L34.75 80.971 63.0899 80.971 63.0899 63.0899C63.0899 61.9428 62.179 60.7282 60.8632 60.7282ZM60.3909 78.2719 37.4491 78.2719 37.4491 60.3909 43.2857 60.3909 45.445 63.4273 60.3909 63.4273 60.3909 78.2719Z" fill="#312D2A" fill-rule="nonzero" fill-opacity="1" transform="matrix(1 0 0 1.00859 356.917 290)"/><path d="M60.3234 46.1872 56.3423 46.2209 56.3423 40.9916C58.4341 38.9335 59.7498 36.1333 59.7498 33.0632L59.7161 18.2185 59.7161 16.869 45.2088 16.869C40.3505 16.869 37.4491 20.0066 37.4491 25.3034L37.4153 33.1981C37.4153 36.302 38.7311 39.1022 40.8229 41.0928L40.8229 46.2209 36.8418 46.1872C29.7231 46.1872 23.9539 51.9564 23.9539 59.0751L23.9539 67.1384 26.6529 67.1384 26.6529 59.0751C26.6529 53.4746 31.2076 48.8862 36.8418 48.8862L41.9362 48.92 48.6163 55.9375 55.2964 48.92 60.3571 48.8862C65.9576 48.8862 70.546 53.4408 70.546 59.0751L70.546 67.1384 73.245 67.1384 73.245 59.0751C73.2113 51.9564 67.4421 46.1872 60.3234 46.1872ZM45.2088 19.568 56.9496 19.568C56.4773 23.9539 53.6095 23.9539 52.6311 23.9539L40.2156 23.9539C40.6204 21.0525 42.2736 19.568 45.2088 19.568ZM40.1144 33.1981 40.1481 26.6529 52.6311 26.6529C54.4193 26.6529 55.9037 26.1469 57.0508 25.236L57.0845 33.0294C57.0845 37.6178 53.2047 41.4976 48.6163 41.4976 43.9268 41.4976 40.1144 37.7527 40.1144 33.1981ZM48.5826 52.0239 43.5219 46.6933 43.5219 42.9821C45.0401 43.7581 46.7607 44.1967 48.5826 44.1967 50.3707 44.1967 52.0913 43.7243 53.6433 42.9484L53.6433 46.6933 48.5826 52.0239Z" fill="#312D2A" fill-rule="nonzero" fill-opacity="1" transform="matrix(1 0 0 1.00859 356.917 290)"/></g></g></g></g></g></svg>