<svg width="98" height="99" xmlns="http://www.w3.org/2000/svg" xmlns:xlink="http://www.w3.org/1999/xlink" xml:space="preserve" overflow="hidden"><g transform="translate(-778 -449)"><g><g><g><g><path d="M66.5191 61.3323C67.7653 60.3219 68.8094 59.0083 69.7524 57.3917L70.0219 56.9201 64.9698 36.6108 64.9024 36.6108C63.791 33.1417 60.6924 30.6493 57.0549 30.6493L52.0365 30.6493C48.3316 30.6493 45.2667 33.108 44.1889 36.6108L44.1552 36.6108 39.1031 56.9201 39.3726 57.3917C40.3156 59.0083 41.3597 60.3219 42.6059 61.3323 36.5771 61.7365 31.9628 66.5528 31.9628 72.649L31.9628 80.766 34.6573 80.766 34.6573 72.649C34.6573 67.799 38.4969 63.9931 43.4142 63.9931L48.1632 63.9931C48.5337 66.9233 51.3292 69.3819 54.4951 69.3819 57.6611 69.3819 60.4903 66.9233 60.8608 63.9931L65.6771 63.9931C70.5944 63.9931 74.434 67.799 74.434 72.649L74.434 80.766 77.1285 80.766 77.1285 72.649C77.1285 66.5865 72.5479 61.7365 66.5191 61.3323ZM46.4792 45.8056 46.4792 42.5385C48.5 42.909 51.4976 42.8417 54.5625 40.484 56.8191 42.2017 59.0083 42.7069 60.8271 42.7069 61.5007 42.7069 62.1069 42.6396 62.6458 42.5385L62.6458 45.8056C62.6458 50.6219 59.0083 54.5625 54.5625 54.5625 50.1167 54.5625 46.4792 50.6219 46.4792 45.8056ZM60.9618 61.1639 60.9618 55.0003C63.0163 53.3837 64.5319 50.9924 65.1045 48.2306L67.159 56.4823C65.6097 59.0083 63.7573 60.3892 60.9618 61.1639ZM52.0365 33.3438 57.0549 33.3438C60.1872 33.3438 62.6458 36.0045 62.6458 39.4062L62.6458 39.7767C61.0965 40.1472 58.301 40.3156 55.4719 37.7222L54.5625 36.8802 53.6531 37.7222C50.824 40.3156 48.0285 40.1472 46.4792 39.7767L46.4792 39.4062C46.4792 36.0045 48.9378 33.3438 52.0365 33.3438ZM44.0542 48.2979C44.6267 51.026 46.1087 53.3837 48.1632 55.0003L48.1632 61.1302C45.3677 60.3556 43.549 58.9747 41.9997 56.4823L44.0542 48.2979ZM54.5625 66.6875C52.6764 66.6875 50.8576 65.0372 50.8576 63.3194L50.8576 56.5496C52.0028 56.9875 53.249 57.2569 54.5625 57.2569 55.876 57.2569 57.1222 57.0212 58.2674 56.5496L58.2674 63.3194C58.2674 65.0708 56.4486 66.6875 54.5625 66.6875Z" fill="#312D2A" fill-rule="nonzero" fill-opacity="1" transform="matrix(1.0017 0 0 1 778.917 450)"/><path d="M32.3333 12.1587 35.0278 12.1587 35.0278 16.2003 32.3333 16.2003Z" fill="#312D2A" fill-rule="nonzero" fill-opacity="1" transform="matrix(1.0017 0 0 1 778.917 450)"/><path d="M43.7847 24.9573 47.8264 24.9573 47.8264 27.6517 43.7847 27.6517Z" fill="#312D2A" fill-rule="nonzero" fill-opacity="1" transform="matrix(1.0017 0 0 1 778.917 450)"/><path d="M19.5347 24.9573 23.5764 24.9573 23.5764 27.6517 19.5347 27.6517Z" fill="#312D2A" fill-rule="nonzero" fill-opacity="1" transform="matrix(1.0017 0 0 1 778.917 450)"/><path d="M801.683 467.28 803.592 465.375 806.454 468.234 804.545 470.139Z" fill="#312D2A" fill-rule="nonzero" fill-opacity="1"/><path d="M818.879 468.209 821.741 465.35 823.65 467.255 820.788 470.113Z" fill="#312D2A" fill-rule="nonzero" fill-opacity="1"/><path d="M28.2917 39.4399 33.6806 42.2691 39.0694 39.4399 39.0694 36.4087 39.0694 35.0615C39.0694 33.8153 39.541 33.0069 40.1135 31.9965 40.8545 30.683 41.7976 29.0326 41.7976 26.2372 41.7976 21.825 38.2274 18.2549 33.8153 18.2549 29.3358 18.2212 25.5972 21.8924 25.5972 26.2035 25.5972 28.999 26.5066 30.6493 27.2476 31.9628 27.8201 32.9733 28.2917 33.7816 28.2917 35.0278L28.2917 36.375 28.2917 39.4399ZM33.7816 20.9156C37.0486 20.9156 39.0694 23.6774 39.0694 26.2035 39.0694 28.2917 38.4295 29.4368 37.7559 30.6493 37.2844 31.525 36.7455 32.4681 36.5097 33.7142L35.0278 33.7142 35.0278 29.3358 32.3333 29.3358 32.3333 33.7142 30.8514 33.7142C30.6156 32.4681 30.0767 31.525 29.6052 30.6493 28.9316 29.4368 28.2917 28.2917 28.2917 26.2035 28.2917 23.6437 30.4809 20.9156 33.7816 20.9156ZM36.375 36.4087 36.375 37.8233 33.6806 39.2378 30.9861 37.8233 30.9861 36.4087 36.375 36.4087Z" fill="#312D2A" fill-rule="nonzero" fill-opacity="1" transform="matrix(1.0017 0 0 1 778.917 450)"/></g></g></g></g></g></svg>