<svg width="99" height="98" xmlns="http://www.w3.org/2000/svg" xmlns:xlink="http://www.w3.org/1999/xlink" xml:space="preserve" overflow="hidden"><g transform="translate(-798 -132)"><g><g><g><g><path d="M60.3571 45.6811C61.6054 44.669 62.6513 43.3532 63.596 41.7338L63.8659 41.2615 58.8052 20.9175 58.7377 20.9175C57.6244 17.4425 54.5205 14.9459 50.8768 14.9459L45.8498 14.9459C42.1386 14.9459 39.0685 17.4088 37.9889 20.9175L37.9551 20.9175 32.8945 41.2615 33.1644 41.7338C34.109 43.3532 35.1549 44.669 36.4032 45.6811 30.3641 46.086 25.742 50.9105 25.742 57.0171L25.742 65.1479 28.4411 65.1479 28.4411 57.0171C28.4411 52.1588 32.2872 48.3464 37.2129 48.3464L41.97 48.3464C42.3411 51.2816 45.1413 53.7445 48.3127 53.7445 51.4841 53.7445 54.318 51.2816 54.6892 48.3464L59.4462 48.3464C64.3719 48.3464 68.2181 52.1588 68.2181 57.0171L68.2181 65.1479 70.9171 65.1479 70.9171 57.0171C70.9846 50.9442 66.3962 46.1197 60.3571 45.6811ZM40.2831 30.128 40.2831 26.8554C42.3073 27.2265 45.31 27.159 48.3802 24.7974 50.6406 26.518 52.8336 27.0241 54.6554 27.0241 55.3302 27.0241 55.9375 26.9566 56.4773 26.8554L56.4773 30.128C56.4773 34.9525 52.8336 38.8998 48.3802 38.8998 43.9268 38.8998 40.2831 34.9862 40.2831 30.128ZM54.7904 45.5124 54.7904 39.3384C56.8484 37.719 58.3666 35.3236 58.9401 32.5571L60.9981 40.8229C59.4462 43.387 57.5906 44.7702 54.7904 45.5124ZM45.8498 17.6449 50.8768 17.6449C54.0144 17.6449 56.4773 20.3102 56.4773 23.7178L56.4773 24.0889C54.9253 24.46 52.1251 24.6287 49.2911 22.0309L48.3802 21.1874 47.4692 22.0309C44.6353 24.6287 41.835 24.46 40.2831 24.0889L40.2831 23.684C40.2831 20.3102 42.7459 17.6449 45.8498 17.6449ZM37.8539 32.6583C38.4275 35.3911 39.9119 37.7527 41.97 39.3721L41.97 45.5124C39.1697 44.7365 37.3479 43.3532 35.7959 40.8566L37.8539 32.6583ZM48.3802 51.0792C46.4908 51.0792 44.669 49.426 44.669 47.7054L44.669 40.9241C45.8161 41.3627 47.0644 41.6326 48.3802 41.6326 49.6959 41.6326 50.9442 41.3964 52.0913 40.9241L52.0913 47.7054C52.0913 49.426 50.3032 51.0792 48.3802 51.0792Z" fill="#312D2A" fill-rule="nonzero" fill-opacity="1" transform="matrix(1.00859 0 0 1 799 132.917)"/><path d="M48.7175 60.1547C42.611 60.1547 42.3073 62.9549 42.3073 63.5285L42.3073 71.963C42.3073 74.0547 46.0522 74.9994 48.7175 74.9994 51.3828 74.9994 55.1277 74.0547 55.1277 71.963L55.1277 63.5285C55.1277 62.2802 54.318 60.1547 48.7175 60.1547ZM48.7175 62.8537C50.7081 62.8537 51.8214 63.1911 52.26 63.4273 51.754 63.7309 50.5056 64.2032 48.7175 64.2032 47.0306 64.2032 45.7823 63.7984 45.2425 63.461 45.8161 63.1911 47.1656 62.8537 48.7175 62.8537ZM52.4287 67.6108C51.8889 67.8807 50.5056 68.2855 48.7175 68.2855 46.9294 68.2855 45.5462 67.8807 45.0064 67.6108L45.0064 66.3287C46.1197 66.7336 47.4355 66.936 48.7175 66.936 49.9996 66.936 51.3154 66.7336 52.4287 66.3287L52.4287 67.6108ZM48.7175 72.3003C46.8957 72.3003 45.5462 71.828 45.0064 71.5244L45.0064 70.4785C46.2547 70.8496 47.7054 70.9508 48.7175 70.9508 49.7297 70.9508 51.1804 70.8159 52.4287 70.4785L52.4287 71.5244C51.8889 71.828 50.5394 72.3003 48.7175 72.3003Z" fill="#312D2A" fill-rule="nonzero" fill-opacity="1" transform="matrix(1.00859 0 0 1 799 132.917)"/><path d="M63.5622 76.3489 63.5622 59.1426C63.5622 57.4557 62.2127 56.1061 60.5258 56.1061L36.5719 56.1061C34.885 56.1061 33.5355 57.4557 33.5355 59.1426L33.5355 76.3489 31.5112 76.3489 28.8122 76.3489 28.8122 77.6984 31.5112 79.0479 33.5355 79.0479 63.5622 79.0479 65.5865 79.0479 68.2855 77.6984 68.2855 76.3489 65.5865 76.3489 63.5622 76.3489ZM36.2345 59.1426C36.2345 58.9401 36.3695 58.8052 36.5719 58.8052L60.5258 58.8052C60.7282 58.8052 60.8632 58.9401 60.8632 59.1426L60.8632 76.3489 36.2345 76.3489 36.2345 59.1426Z" fill="#312D2A" fill-rule="nonzero" fill-opacity="1" transform="matrix(1.00859 0 0 1 799 132.917)"/></g></g></g></g></g></svg>