<svg width="100" height="99" xmlns="http://www.w3.org/2000/svg" xmlns:xlink="http://www.w3.org/1999/xlink" xml:space="preserve" overflow="hidden"><g transform="translate(-404 -458)"><g><g><g><g><path d="M471.354 537.944 469.312 537.944 469.312 520.59C469.312 518.889 467.951 517.528 466.25 517.528L442.09 517.528C440.389 517.528 439.028 518.889 439.028 520.59L439.028 537.944 436.986 537.944 434.264 537.944 434.264 539.306 436.986 540.667 439.028 540.667 469.312 540.667 471.354 540.667 474.076 539.306 474.076 537.944 471.354 537.944ZM441.75 537.944 441.75 537.842 447.228 532.364 451.924 536.753 461.486 527.328 461.486 534.201 464.208 534.201 464.208 522.632 452.673 522.632 452.673 525.354 459.547 525.354 451.856 532.942 447.16 528.553 441.75 533.963 441.75 520.59C441.75 520.386 441.886 520.25 442.09 520.25L466.25 520.25C466.454 520.25 466.59 520.386 466.59 520.59L466.59 537.944 441.75 537.944Z" fill="#312D2A" fill-rule="nonzero" fill-opacity="1"/><path d="M465.842 505.584 461.826 505.618 461.826 500.344C463.936 498.268 465.263 495.444 465.263 492.347L465.229 477.375 465.229 476.014 450.597 476.014C445.697 476.014 442.771 479.178 442.771 484.521L442.737 492.483C442.737 495.614 444.064 498.438 446.174 500.446L446.174 505.618 442.158 505.584C434.978 505.584 429.16 511.403 429.16 518.583L429.16 526.715 431.882 526.715 431.882 518.583C431.882 512.934 436.476 508.306 442.158 508.306L447.297 508.34 454.034 515.418 460.772 508.34 465.876 508.306C471.524 508.306 476.152 512.9 476.152 518.583L476.152 526.715 478.874 526.715 478.874 518.583C478.84 511.403 473.022 505.584 465.842 505.584ZM450.597 478.736 462.439 478.736C461.962 483.16 459.07 483.16 458.083 483.16L445.561 483.16C445.969 480.233 447.637 478.736 450.597 478.736ZM445.459 492.483 445.493 485.882 458.083 485.882C459.887 485.882 461.384 485.372 462.541 484.453L462.575 492.313C462.575 496.941 458.662 500.854 454.034 500.854 449.304 500.854 445.459 497.077 445.459 492.483ZM454 511.471 448.896 506.094 448.896 502.351C450.427 503.134 452.163 503.576 454 503.576 455.803 503.576 457.539 503.1 459.104 502.317L459.104 506.094 454 511.471Z" fill="#312D2A" fill-rule="nonzero" fill-opacity="1"/></g></g></g></g></g></svg>