<svg width="99" height="98" xmlns="http://www.w3.org/2000/svg" xmlns:xlink="http://www.w3.org/1999/xlink" xml:space="preserve" overflow="hidden"><g transform="translate(-590 -72)"><g><g><g><g><path d="M44.7027 65.654 43.3532 65.654 43.3532 68.353 46.0522 68.353Z" fill="#312D2A" fill-rule="nonzero" fill-opacity="1" transform="matrix(1.00859 0 0 1 591 72.9174)"/><path d="M49.7297 72.8739 51.1804 72.0304C51.3828 72.1654 51.5853 72.2666 51.7877 72.3678L51.7877 74.0885 55.1615 74.0885 55.1615 72.3678C55.3976 72.2666 55.6001 72.1317 55.8025 71.9967L57.3207 72.8739 59.0413 69.9724 57.5231 69.0615C57.5231 68.9266 57.5569 68.7916 57.5569 68.6904 57.5569 68.5892 57.5569 68.4205 57.5231 68.3193L59.0413 67.4083 57.3207 64.5069 55.8025 65.3841C55.6001 65.2491 55.3976 65.1142 55.1615 65.013L55.1615 63.2923 51.7877 63.2923 51.7877 65.013C51.5853 65.1142 51.3828 65.2154 51.1804 65.3503L49.7297 64.5069 48.009 67.4083 49.426 68.2518C49.426 68.3867 49.3923 68.5554 49.3923 68.6904 49.3923 68.8253 49.3923 68.994 49.426 69.129L48.009 69.9724 49.7297 72.8739ZM53.4746 67.3409C54.2168 67.3409 54.8241 67.9482 54.8241 68.6904 54.8241 69.4326 54.2168 70.0399 53.4746 70.0399 52.7324 70.0399 52.1251 69.4326 52.1251 68.6904 52.1251 67.9482 52.7324 67.3409 53.4746 67.3409Z" fill="#312D2A" fill-rule="nonzero" fill-opacity="1" transform="matrix(1.00859 0 0 1 591 72.9174)"/><path d="M41.3289 65.654 39.9794 65.654 38.6299 68.353 41.3289 68.353Z" fill="#312D2A" fill-rule="nonzero" fill-opacity="1" transform="matrix(1.00859 0 0 1 591 72.9174)"/><path d="M65.2829 78.8118 63.2586 78.8118 63.2586 61.6054C63.2586 59.9185 61.9091 58.569 60.2222 58.569L36.2683 58.569C34.5814 58.569 33.2318 59.9185 33.2318 61.6054L33.2318 78.8118 31.2076 78.8118 28.5085 78.8118 28.5085 80.1613 31.2076 81.5108 65.2829 81.5108 67.9819 80.1613 67.9819 78.8118 65.2829 78.8118ZM35.9309 61.6054C35.9309 61.403 36.0658 61.268 36.2683 61.268L60.2222 61.268C60.4246 61.268 60.5595 61.403 60.5595 61.6054L60.5595 78.8118 43.6906 78.8118 43.6906 73.1438C45.0401 72.604 45.9848 71.3219 46.0522 69.8375L46.0522 68.353 43.3532 68.353 43.3532 69.3651 41.3289 69.3651 41.3289 68.353 38.6299 68.353 38.6299 69.7025C38.6299 71.2882 39.6083 72.604 40.9916 73.1438L40.9916 78.8118 35.9309 78.8118 35.9309 61.6054Z" fill="#312D2A" fill-rule="nonzero" fill-opacity="1" transform="matrix(1.00859 0 0 1 591 72.9174)"/><path d="M60.0535 48.144C61.3018 47.1319 62.3477 45.8161 63.2923 44.1967L63.5622 43.7243 58.5015 23.3804 58.4341 23.3804C57.3207 19.9054 54.2168 17.4088 50.5731 17.4088L45.5462 17.4088C41.835 17.4088 38.7649 19.8716 37.6852 23.3804L37.6515 23.3804 32.5908 43.7243 32.8607 44.1967C33.8054 45.8161 34.8513 47.1319 36.0996 48.144 30.0605 48.5489 25.4384 53.3734 25.4384 59.4799L25.4384 67.6108 28.1374 67.6108 28.1374 59.4799C28.1374 54.6217 31.9835 50.8093 36.9093 50.8093L41.6663 50.8093C42.0374 53.7445 44.8377 56.2074 48.009 56.2074 51.1804 56.2074 54.0144 53.7445 54.3855 50.8093L59.1426 50.8093C64.0683 50.8093 67.9144 54.6217 67.9144 59.4799L67.9144 67.6108 70.6134 67.6108 70.6134 59.4799C70.6809 53.4071 66.0926 48.5489 60.0535 48.144ZM39.9794 32.5908 39.9794 29.3182C42.0037 29.6894 45.0064 29.6219 48.0765 27.2602 50.337 28.9809 52.5299 29.4869 54.3518 29.4869 55.0265 29.4869 55.6338 29.4195 56.1736 29.3182L56.1736 32.5908C56.1736 37.4153 52.5299 41.3627 48.0765 41.3627 43.6231 41.3627 39.9794 37.4153 39.9794 32.5908ZM54.4867 47.9753 54.4867 41.8013C56.5447 40.1819 58.0629 37.7865 58.6365 35.02L60.6945 43.2857C59.1426 45.8161 57.287 47.1993 54.4867 47.9753ZM45.5462 20.1078 50.5731 20.1078C53.7108 20.1078 56.1736 22.7731 56.1736 26.1806L56.1736 26.5517C54.6217 26.9229 51.8214 27.0915 48.9874 24.4937L48.0765 23.6503 47.1656 24.4937C44.3316 27.0915 41.5314 26.9229 39.9794 26.5517L39.9794 26.1469C39.9794 22.7731 42.4423 20.1078 45.5462 20.1078ZM37.5503 35.0874C38.1238 37.8202 39.6083 40.1819 41.6663 41.8013L41.6663 47.9416C38.8661 47.1656 37.0442 45.7823 35.4923 43.2857L37.5503 35.0874ZM48.0765 53.5083C46.1872 53.5083 44.3654 51.8552 44.3654 50.1345L44.3654 43.3532C45.5124 43.7918 46.7607 44.0617 48.0765 44.0617 49.3923 44.0617 50.6406 43.8255 51.7877 43.3532L51.7877 50.1345C51.7877 51.8889 49.9658 53.5083 48.0765 53.5083Z" fill="#312D2A" fill-rule="nonzero" fill-opacity="1" transform="matrix(1.00859 0 0 1 591 72.9174)"/></g></g></g></g></g></svg>